<mxfile host="Electron" agent="Mozilla/5.0 (Windows NT 10.0; Win64; x64) AppleWebKit/537.36 (KHTML, like Gecko) draw.io/24.7.17 Chrome/128.0.6613.36 Electron/32.0.1 Safari/537.36" version="24.7.17">
  <diagram name="Page-1" id="Vk7o6lT_bjk-o6oZGA0Z">
    <mxGraphModel dx="2359" dy="1988" grid="1" gridSize="10" guides="1" tooltips="1" connect="1" arrows="1" fold="1" page="1" pageScale="1" pageWidth="850" pageHeight="1100" math="0" shadow="0">
      <root>
        <mxCell id="0" />
        <mxCell id="1" parent="0" />
        <mxCell id="UxJSxMPGAu-s07Ws8PDp-7" value="&lt;font style=&quot;font-size: 18px;&quot;&gt;PM&lt;br&gt;&lt;/font&gt;&lt;div&gt;&lt;font style=&quot;font-size: 12px;&quot;&gt;Program&lt;br&gt;Memory&lt;/font&gt;&lt;/div&gt;" style="rounded=0;whiteSpace=wrap;html=1;rotation=0;" parent="1" vertex="1">
          <mxGeometry x="22" y="-12" width="80" height="120" as="geometry" />
        </mxCell>
        <mxCell id="GmnKZ83CwBcU47um8lYi-19" value="" style="shape=link;html=1;rounded=0;movable=1;resizable=1;rotatable=1;deletable=1;editable=1;locked=0;connectable=1;fillColor=#f8cecc;strokeColor=#B85450;" edge="1" parent="1" source="GmnKZ83CwBcU47um8lYi-18">
          <mxGeometry width="100" relative="1" as="geometry">
            <mxPoint x="-59.88736628102515" y="-186.87463293021756" as="sourcePoint" />
            <mxPoint x="70" y="-370" as="targetPoint" />
            <Array as="points">
              <mxPoint x="-20" y="-370" />
            </Array>
          </mxGeometry>
        </mxCell>
        <mxCell id="GmnKZ83CwBcU47um8lYi-20" value="&lt;font color=&quot;#b85450&quot;&gt;PC_Addr&lt;/font&gt;" style="edgeLabel;html=1;align=center;verticalAlign=middle;resizable=0;points=[];" vertex="1" connectable="0" parent="GmnKZ83CwBcU47um8lYi-19">
          <mxGeometry x="0.5185" y="-2" relative="1" as="geometry">
            <mxPoint x="58" y="-8" as="offset" />
          </mxGeometry>
        </mxCell>
        <mxCell id="UxJSxMPGAu-s07Ws8PDp-14" value="" style="group" parent="1" vertex="1" connectable="0">
          <mxGeometry x="-18" y="38" width="20" height="20" as="geometry" />
        </mxCell>
        <mxCell id="UxJSxMPGAu-s07Ws8PDp-10" value="" style="endArrow=none;html=1;rounded=0;movable=1;resizable=1;rotatable=1;deletable=1;editable=1;locked=0;connectable=1;" parent="UxJSxMPGAu-s07Ws8PDp-14" edge="1">
          <mxGeometry width="50" height="50" relative="1" as="geometry">
            <mxPoint y="20" as="sourcePoint" />
            <mxPoint x="20" as="targetPoint" />
          </mxGeometry>
        </mxCell>
        <mxCell id="UxJSxMPGAu-s07Ws8PDp-18" value="6" style="edgeLabel;html=1;align=center;verticalAlign=middle;resizable=0;points=[];rotation=0;" parent="UxJSxMPGAu-s07Ws8PDp-10" vertex="1" connectable="0">
          <mxGeometry x="0.7046" relative="1" as="geometry">
            <mxPoint x="-8" y="-4" as="offset" />
          </mxGeometry>
        </mxCell>
        <mxCell id="UxJSxMPGAu-s07Ws8PDp-6" value="" style="shape=link;html=1;rounded=0;movable=1;resizable=1;rotatable=1;deletable=1;editable=1;locked=0;connectable=1;exitX=1;exitY=0.5;exitDx=0;exitDy=0;entryX=0;entryY=0.5;entryDx=0;entryDy=0;" parent="1" source="UxJSxMPGAu-s07Ws8PDp-1" target="UxJSxMPGAu-s07Ws8PDp-7" edge="1">
          <mxGeometry width="100" relative="1" as="geometry">
            <mxPoint x="-38" y="47.71000000000001" as="sourcePoint" />
            <mxPoint x="22" y="48" as="targetPoint" />
            <Array as="points">
              <mxPoint x="-8" y="48" />
              <mxPoint x="12" y="48" />
            </Array>
          </mxGeometry>
        </mxCell>
        <mxCell id="UxJSxMPGAu-s07Ws8PDp-25" value="PC_Addr" style="edgeLabel;html=1;align=center;verticalAlign=middle;resizable=0;points=[];" parent="UxJSxMPGAu-s07Ws8PDp-6" vertex="1" connectable="0">
          <mxGeometry x="0.5185" y="-2" relative="1" as="geometry">
            <mxPoint x="-17" y="15" as="offset" />
          </mxGeometry>
        </mxCell>
        <mxCell id="UxJSxMPGAu-s07Ws8PDp-24" value="&lt;font style=&quot;&quot;&gt;&lt;span style=&quot;font-size: 18px;&quot;&gt;ID&lt;/span&gt;&lt;br&gt;&lt;font style=&quot;font-size: 12px;&quot;&gt;Instruction&lt;br&gt;Decoder&lt;/font&gt;&lt;/font&gt;" style="rounded=0;whiteSpace=wrap;html=1;rotation=0;" parent="1" vertex="1">
          <mxGeometry x="161" y="-12" width="80" height="120" as="geometry" />
        </mxCell>
        <mxCell id="UxJSxMPGAu-s07Ws8PDp-37" value="" style="group" parent="1" vertex="1" connectable="0">
          <mxGeometry x="122" y="37.99841387867488" width="30" height="20" as="geometry" />
        </mxCell>
        <mxCell id="UxJSxMPGAu-s07Ws8PDp-32" value="" style="group" parent="UxJSxMPGAu-s07Ws8PDp-37" vertex="1" connectable="0">
          <mxGeometry width="20" height="20" as="geometry" />
        </mxCell>
        <mxCell id="UxJSxMPGAu-s07Ws8PDp-33" value="" style="endArrow=none;html=1;rounded=0;movable=1;resizable=1;rotatable=1;deletable=1;editable=1;locked=0;connectable=1;" parent="UxJSxMPGAu-s07Ws8PDp-32" edge="1">
          <mxGeometry width="50" height="50" relative="1" as="geometry">
            <mxPoint y="20" as="sourcePoint" />
            <mxPoint x="20" as="targetPoint" />
          </mxGeometry>
        </mxCell>
        <mxCell id="UxJSxMPGAu-s07Ws8PDp-34" value="13" style="edgeLabel;html=1;align=center;verticalAlign=middle;resizable=0;points=[];rotation=0;" parent="UxJSxMPGAu-s07Ws8PDp-33" vertex="1" connectable="0">
          <mxGeometry x="0.7046" relative="1" as="geometry">
            <mxPoint x="-10" y="-4" as="offset" />
          </mxGeometry>
        </mxCell>
        <mxCell id="UxJSxMPGAu-s07Ws8PDp-35" value="" style="shape=link;html=1;rounded=0;movable=1;resizable=1;rotatable=1;deletable=1;editable=1;locked=0;connectable=1;exitX=0.998;exitY=0.5;exitDx=0;exitDy=0;entryX=0;entryY=0.5;entryDx=0;entryDy=0;exitPerimeter=0;" parent="UxJSxMPGAu-s07Ws8PDp-37" source="UxJSxMPGAu-s07Ws8PDp-7" edge="1">
          <mxGeometry width="100" relative="1" as="geometry">
            <mxPoint x="-20" y="10" as="sourcePoint" />
            <mxPoint x="40" y="10" as="targetPoint" />
            <Array as="points">
              <mxPoint x="10" y="10" />
              <mxPoint x="30" y="10" />
            </Array>
          </mxGeometry>
        </mxCell>
        <mxCell id="UxJSxMPGAu-s07Ws8PDp-36" value="PM_Ins" style="edgeLabel;html=1;align=center;verticalAlign=middle;resizable=0;points=[];" parent="UxJSxMPGAu-s07Ws8PDp-35" vertex="1" connectable="0">
          <mxGeometry x="0.5185" y="-2" relative="1" as="geometry">
            <mxPoint x="-17" y="15" as="offset" />
          </mxGeometry>
        </mxCell>
        <mxCell id="UxJSxMPGAu-s07Ws8PDp-38" value="" style="endArrow=none;html=1;rounded=0;strokeWidth=1;exitX=1.006;exitY=0.083;exitDx=0;exitDy=0;exitPerimeter=0;entryX=-0.001;entryY=0.078;entryDx=0;entryDy=0;entryPerimeter=0;" parent="1" source="UxJSxMPGAu-s07Ws8PDp-24" target="89jJZUIVo5kmt4zz9DGK-15" edge="1">
          <mxGeometry width="50" height="50" relative="1" as="geometry">
            <mxPoint x="480" y="-2" as="sourcePoint" />
            <mxPoint x="600" y="-2" as="targetPoint" />
          </mxGeometry>
        </mxCell>
        <mxCell id="89jJZUIVo5kmt4zz9DGK-2" value="ID_RegCE" style="edgeLabel;html=1;align=center;verticalAlign=middle;resizable=0;points=[];" parent="UxJSxMPGAu-s07Ws8PDp-38" vertex="1" connectable="0">
          <mxGeometry x="0.4629" y="-1" relative="1" as="geometry">
            <mxPoint x="-168" y="-10" as="offset" />
          </mxGeometry>
        </mxCell>
        <mxCell id="89jJZUIVo5kmt4zz9DGK-6" value="" style="group" parent="1" vertex="1" connectable="0">
          <mxGeometry x="-138" y="-12" width="100" height="120" as="geometry" />
        </mxCell>
        <mxCell id="UxJSxMPGAu-s07Ws8PDp-1" value="&lt;font style=&quot;&quot;&gt;&lt;span style=&quot;font-size: 18px;&quot;&gt;PC&lt;/span&gt;&lt;br&gt;&lt;font style=&quot;font-size: 12px;&quot;&gt;Program&lt;br&gt;Counter&lt;/font&gt;&lt;/font&gt;" style="rounded=0;whiteSpace=wrap;html=1;rotation=0;" parent="89jJZUIVo5kmt4zz9DGK-6" vertex="1">
          <mxGeometry x="20" width="80" height="120" as="geometry" />
        </mxCell>
        <mxCell id="UxJSxMPGAu-s07Ws8PDp-3" value="" style="triangle;whiteSpace=wrap;html=1;" parent="89jJZUIVo5kmt4zz9DGK-6" vertex="1">
          <mxGeometry x="20" y="90" width="10" height="20" as="geometry" />
        </mxCell>
        <mxCell id="UxJSxMPGAu-s07Ws8PDp-4" value="" style="endArrow=none;html=1;rounded=0;entryX=0;entryY=0.5;entryDx=0;entryDy=0;" parent="89jJZUIVo5kmt4zz9DGK-6" target="UxJSxMPGAu-s07Ws8PDp-3" edge="1">
          <mxGeometry width="50" height="50" relative="1" as="geometry">
            <mxPoint y="100" as="sourcePoint" />
            <mxPoint y="100" as="targetPoint" />
          </mxGeometry>
        </mxCell>
        <mxCell id="UxJSxMPGAu-s07Ws8PDp-5" value="&lt;font style=&quot;font-size: 14px;&quot;&gt;clk&lt;/font&gt;" style="edgeLabel;html=1;align=center;verticalAlign=middle;resizable=0;points=[];" parent="UxJSxMPGAu-s07Ws8PDp-4" vertex="1" connectable="0">
          <mxGeometry x="-0.1933" y="1" relative="1" as="geometry">
            <mxPoint x="-15" as="offset" />
          </mxGeometry>
        </mxCell>
        <mxCell id="GTWBB9mIRMIXPtu_y5Ys-55" value="" style="endArrow=none;html=1;rounded=0;" parent="89jJZUIVo5kmt4zz9DGK-6" edge="1">
          <mxGeometry width="50" height="50" relative="1" as="geometry">
            <mxPoint y="80" as="sourcePoint" />
            <mxPoint x="20" y="80" as="targetPoint" />
          </mxGeometry>
        </mxCell>
        <mxCell id="GTWBB9mIRMIXPtu_y5Ys-56" value="nReset" style="edgeLabel;html=1;align=center;verticalAlign=middle;resizable=0;points=[];" parent="GTWBB9mIRMIXPtu_y5Ys-55" vertex="1" connectable="0">
          <mxGeometry x="-0.2105" y="1" relative="1" as="geometry">
            <mxPoint x="-30" as="offset" />
          </mxGeometry>
        </mxCell>
        <mxCell id="89jJZUIVo5kmt4zz9DGK-19" value="" style="group" parent="1" vertex="1" connectable="0">
          <mxGeometry x="491" y="-11" width="100" height="120" as="geometry" />
        </mxCell>
        <mxCell id="89jJZUIVo5kmt4zz9DGK-15" value="&lt;font style=&quot;&quot;&gt;&lt;span style=&quot;font-size: 18px;&quot;&gt;RF&lt;/span&gt;&lt;br&gt;&lt;font style=&quot;font-size: 12px;&quot;&gt;Register&lt;br&gt;File&lt;/font&gt;&lt;/font&gt;" style="rounded=0;whiteSpace=wrap;html=1;rotation=0;" parent="89jJZUIVo5kmt4zz9DGK-19" vertex="1">
          <mxGeometry x="20" width="80" height="120" as="geometry" />
        </mxCell>
        <mxCell id="89jJZUIVo5kmt4zz9DGK-16" value="" style="triangle;whiteSpace=wrap;html=1;" parent="89jJZUIVo5kmt4zz9DGK-19" vertex="1">
          <mxGeometry x="20" y="90" width="10" height="20" as="geometry" />
        </mxCell>
        <mxCell id="89jJZUIVo5kmt4zz9DGK-17" value="" style="endArrow=none;html=1;rounded=0;entryX=0;entryY=0.5;entryDx=0;entryDy=0;" parent="89jJZUIVo5kmt4zz9DGK-19" target="89jJZUIVo5kmt4zz9DGK-16" edge="1">
          <mxGeometry width="50" height="50" relative="1" as="geometry">
            <mxPoint y="100" as="sourcePoint" />
            <mxPoint y="100" as="targetPoint" />
          </mxGeometry>
        </mxCell>
        <mxCell id="89jJZUIVo5kmt4zz9DGK-18" value="&lt;font style=&quot;font-size: 14px;&quot;&gt;clk&lt;/font&gt;" style="edgeLabel;html=1;align=center;verticalAlign=middle;resizable=0;points=[];" parent="89jJZUIVo5kmt4zz9DGK-17" vertex="1" connectable="0">
          <mxGeometry x="-0.1933" y="1" relative="1" as="geometry">
            <mxPoint x="-15" as="offset" />
          </mxGeometry>
        </mxCell>
        <mxCell id="GTWBB9mIRMIXPtu_y5Ys-43" value="" style="triangle;whiteSpace=wrap;html=1;direction=east;" parent="89jJZUIVo5kmt4zz9DGK-19" vertex="1">
          <mxGeometry x="10" y="29" width="10" height="10" as="geometry" />
        </mxCell>
        <mxCell id="GTWBB9mIRMIXPtu_y5Ys-53" value="" style="endArrow=none;html=1;rounded=0;" parent="89jJZUIVo5kmt4zz9DGK-19" edge="1">
          <mxGeometry width="50" height="50" relative="1" as="geometry">
            <mxPoint y="79" as="sourcePoint" />
            <mxPoint x="20" y="79" as="targetPoint" />
          </mxGeometry>
        </mxCell>
        <mxCell id="GTWBB9mIRMIXPtu_y5Ys-54" value="nReset" style="edgeLabel;html=1;align=center;verticalAlign=middle;resizable=0;points=[];" parent="GTWBB9mIRMIXPtu_y5Ys-53" vertex="1" connectable="0">
          <mxGeometry x="-0.2105" y="1" relative="1" as="geometry">
            <mxPoint x="-30" as="offset" />
          </mxGeometry>
        </mxCell>
        <mxCell id="89jJZUIVo5kmt4zz9DGK-28" value="" style="group" parent="1" vertex="1" connectable="0">
          <mxGeometry x="610" y="270" width="200" height="80" as="geometry" />
        </mxCell>
        <mxCell id="89jJZUIVo5kmt4zz9DGK-20" value="" style="endArrow=none;html=1;rounded=0;" parent="89jJZUIVo5kmt4zz9DGK-28" edge="1">
          <mxGeometry width="50" height="50" relative="1" as="geometry">
            <mxPoint as="sourcePoint" />
            <mxPoint x="60" as="targetPoint" />
          </mxGeometry>
        </mxCell>
        <mxCell id="GTWBB9mIRMIXPtu_y5Ys-18" value="ALUCode" style="edgeLabel;html=1;align=center;verticalAlign=middle;resizable=0;points=[];" parent="89jJZUIVo5kmt4zz9DGK-20" vertex="1" connectable="0">
          <mxGeometry x="-0.2778" y="-1" relative="1" as="geometry">
            <mxPoint x="32" y="31" as="offset" />
          </mxGeometry>
        </mxCell>
        <mxCell id="89jJZUIVo5kmt4zz9DGK-21" value="" style="endArrow=none;html=1;rounded=0;" parent="89jJZUIVo5kmt4zz9DGK-28" edge="1">
          <mxGeometry width="50" height="50" relative="1" as="geometry">
            <mxPoint x="60" y="80" as="sourcePoint" />
            <mxPoint x="140" y="80" as="targetPoint" />
          </mxGeometry>
        </mxCell>
        <mxCell id="89jJZUIVo5kmt4zz9DGK-22" value="" style="endArrow=none;html=1;rounded=0;" parent="89jJZUIVo5kmt4zz9DGK-28" edge="1">
          <mxGeometry width="50" height="50" relative="1" as="geometry">
            <mxPoint x="140" as="sourcePoint" />
            <mxPoint x="200" as="targetPoint" />
          </mxGeometry>
        </mxCell>
        <mxCell id="89jJZUIVo5kmt4zz9DGK-23" value="" style="endArrow=none;html=1;rounded=0;" parent="89jJZUIVo5kmt4zz9DGK-28" edge="1">
          <mxGeometry width="50" height="50" relative="1" as="geometry">
            <mxPoint x="140" y="80" as="sourcePoint" />
            <mxPoint x="200" as="targetPoint" />
          </mxGeometry>
        </mxCell>
        <mxCell id="GTWBB9mIRMIXPtu_y5Ys-16" value="Co" style="edgeLabel;html=1;align=center;verticalAlign=middle;resizable=0;points=[];" parent="89jJZUIVo5kmt4zz9DGK-23" vertex="1" connectable="0">
          <mxGeometry x="-0.1764" y="1" relative="1" as="geometry">
            <mxPoint x="-13" as="offset" />
          </mxGeometry>
        </mxCell>
        <mxCell id="89jJZUIVo5kmt4zz9DGK-24" value="" style="endArrow=none;html=1;rounded=0;" parent="89jJZUIVo5kmt4zz9DGK-28" edge="1">
          <mxGeometry width="50" height="50" relative="1" as="geometry">
            <mxPoint x="100" y="50" as="sourcePoint" />
            <mxPoint x="140" as="targetPoint" />
          </mxGeometry>
        </mxCell>
        <mxCell id="89jJZUIVo5kmt4zz9DGK-25" value="" style="endArrow=none;html=1;rounded=0;" parent="89jJZUIVo5kmt4zz9DGK-28" edge="1">
          <mxGeometry width="50" height="50" relative="1" as="geometry">
            <mxPoint x="100" y="50" as="sourcePoint" />
            <mxPoint x="60" as="targetPoint" />
          </mxGeometry>
        </mxCell>
        <mxCell id="89jJZUIVo5kmt4zz9DGK-27" value="" style="endArrow=none;html=1;rounded=0;" parent="89jJZUIVo5kmt4zz9DGK-28" edge="1">
          <mxGeometry width="50" height="50" relative="1" as="geometry">
            <mxPoint as="sourcePoint" />
            <mxPoint x="60" y="80" as="targetPoint" />
          </mxGeometry>
        </mxCell>
        <mxCell id="GTWBB9mIRMIXPtu_y5Ys-17" value="Ci" style="edgeLabel;html=1;align=center;verticalAlign=middle;resizable=0;points=[];" parent="89jJZUIVo5kmt4zz9DGK-27" vertex="1" connectable="0">
          <mxGeometry x="0.1087" relative="1" as="geometry">
            <mxPoint x="17" y="7" as="offset" />
          </mxGeometry>
        </mxCell>
        <mxCell id="GTWBB9mIRMIXPtu_y5Ys-32" value="" style="triangle;whiteSpace=wrap;html=1;direction=east;" parent="89jJZUIVo5kmt4zz9DGK-28" vertex="1">
          <mxGeometry x="10" y="25" width="10" height="10" as="geometry" />
        </mxCell>
        <mxCell id="89jJZUIVo5kmt4zz9DGK-48" value="" style="group" parent="1" vertex="1" connectable="0">
          <mxGeometry x="650" y="420" width="100" height="80" as="geometry" />
        </mxCell>
        <mxCell id="89jJZUIVo5kmt4zz9DGK-44" value="&lt;font style=&quot;font-size: 18px;&quot;&gt;Accu&lt;/font&gt;" style="rounded=0;whiteSpace=wrap;html=1;rotation=0;container=0;" parent="89jJZUIVo5kmt4zz9DGK-48" vertex="1">
          <mxGeometry x="20" width="80" height="80" as="geometry" />
        </mxCell>
        <mxCell id="89jJZUIVo5kmt4zz9DGK-45" value="" style="triangle;whiteSpace=wrap;html=1;container=0;" parent="89jJZUIVo5kmt4zz9DGK-48" vertex="1">
          <mxGeometry x="20" y="50" width="10" height="20" as="geometry" />
        </mxCell>
        <mxCell id="89jJZUIVo5kmt4zz9DGK-46" value="" style="endArrow=none;html=1;rounded=0;entryX=0;entryY=0.5;entryDx=0;entryDy=0;" parent="89jJZUIVo5kmt4zz9DGK-48" target="89jJZUIVo5kmt4zz9DGK-45" edge="1">
          <mxGeometry width="50" height="50" relative="1" as="geometry">
            <mxPoint y="60" as="sourcePoint" />
            <mxPoint y="60" as="targetPoint" />
          </mxGeometry>
        </mxCell>
        <mxCell id="89jJZUIVo5kmt4zz9DGK-47" value="&lt;font style=&quot;font-size: 11px;&quot;&gt;clk&lt;/font&gt;" style="edgeLabel;html=1;align=center;verticalAlign=middle;resizable=0;points=[];container=0;" parent="89jJZUIVo5kmt4zz9DGK-46" vertex="1" connectable="0">
          <mxGeometry x="-0.1933" y="1" relative="1" as="geometry">
            <mxPoint x="-15" as="offset" />
          </mxGeometry>
        </mxCell>
        <mxCell id="89jJZUIVo5kmt4zz9DGK-50" value="" style="shape=link;html=1;rounded=0;movable=1;resizable=1;rotatable=1;deletable=1;editable=1;locked=0;connectable=1;entryX=0.5;entryY=1;entryDx=0;entryDy=0;exitX=0;exitY=0.5;exitDx=0;exitDy=0;" parent="1" source="89jJZUIVo5kmt4zz9DGK-73" edge="1">
          <mxGeometry width="100" relative="1" as="geometry">
            <mxPoint x="710" y="419.68" as="sourcePoint" />
            <mxPoint x="710" y="349.68" as="targetPoint" />
          </mxGeometry>
        </mxCell>
        <mxCell id="89jJZUIVo5kmt4zz9DGK-51" value="" style="endArrow=none;html=1;rounded=0;movable=1;resizable=1;rotatable=1;deletable=1;editable=1;locked=0;connectable=1;" parent="1" edge="1">
          <mxGeometry width="50" height="50" relative="1" as="geometry">
            <mxPoint x="700" y="399.67761839787" as="sourcePoint" />
            <mxPoint x="720" y="379.68" as="targetPoint" />
          </mxGeometry>
        </mxCell>
        <mxCell id="89jJZUIVo5kmt4zz9DGK-52" value="8" style="edgeLabel;html=1;align=center;verticalAlign=middle;resizable=0;points=[];rotation=0;container=0;" parent="89jJZUIVo5kmt4zz9DGK-51" vertex="1" connectable="0">
          <mxGeometry x="0.7046" relative="1" as="geometry">
            <mxPoint x="-17" y="4" as="offset" />
          </mxGeometry>
        </mxCell>
        <mxCell id="89jJZUIVo5kmt4zz9DGK-54" value="" style="shape=link;html=1;rounded=0;movable=1;resizable=1;rotatable=1;deletable=1;editable=1;locked=0;connectable=1;exitX=0;exitY=0.5;exitDx=0;exitDy=0;" parent="1" source="89jJZUIVo5kmt4zz9DGK-76" edge="1">
          <mxGeometry width="100" relative="1" as="geometry">
            <mxPoint x="672" y="70" as="sourcePoint" />
            <mxPoint x="710" y="500" as="targetPoint" />
            <Array as="points">
              <mxPoint x="575" y="-80" />
              <mxPoint x="1001" y="-80" />
              <mxPoint x="1001" y="540" />
              <mxPoint x="710" y="540" />
            </Array>
          </mxGeometry>
        </mxCell>
        <mxCell id="89jJZUIVo5kmt4zz9DGK-55" value="" style="endArrow=none;html=1;rounded=0;movable=1;resizable=1;rotatable=1;deletable=1;editable=1;locked=0;connectable=1;" parent="1" edge="1">
          <mxGeometry width="50" height="50" relative="1" as="geometry">
            <mxPoint x="699" y="529.9976183978699" as="sourcePoint" />
            <mxPoint x="719" y="510" as="targetPoint" />
          </mxGeometry>
        </mxCell>
        <mxCell id="89jJZUIVo5kmt4zz9DGK-56" value="8" style="edgeLabel;html=1;align=center;verticalAlign=middle;resizable=0;points=[];rotation=0;container=0;" parent="89jJZUIVo5kmt4zz9DGK-55" vertex="1" connectable="0">
          <mxGeometry x="0.7046" relative="1" as="geometry">
            <mxPoint x="3" y="9" as="offset" />
          </mxGeometry>
        </mxCell>
        <mxCell id="89jJZUIVo5kmt4zz9DGK-57" value="" style="endArrow=none;html=1;rounded=0;movable=1;resizable=1;rotatable=1;deletable=1;editable=1;locked=0;connectable=1;" parent="1" edge="1">
          <mxGeometry width="50" height="50" relative="1" as="geometry">
            <mxPoint x="565" y="-31.002381602130015" as="sourcePoint" />
            <mxPoint x="585" y="-51" as="targetPoint" />
          </mxGeometry>
        </mxCell>
        <mxCell id="89jJZUIVo5kmt4zz9DGK-58" value="8" style="edgeLabel;html=1;align=center;verticalAlign=middle;resizable=0;points=[];rotation=0;container=0;" parent="89jJZUIVo5kmt4zz9DGK-57" vertex="1" connectable="0">
          <mxGeometry x="0.7046" relative="1" as="geometry">
            <mxPoint x="-17" y="4" as="offset" />
          </mxGeometry>
        </mxCell>
        <mxCell id="89jJZUIVo5kmt4zz9DGK-59" value="" style="group" parent="1" vertex="1" connectable="0">
          <mxGeometry x="800" y="219.998094718296" width="20" height="20" as="geometry" />
        </mxCell>
        <mxCell id="89jJZUIVo5kmt4zz9DGK-60" value="" style="shape=link;html=1;rounded=0;movable=1;resizable=1;rotatable=1;deletable=1;editable=1;locked=0;connectable=1;" parent="89jJZUIVo5kmt4zz9DGK-59" target="89jJZUIVo5kmt4zz9DGK-63" edge="1">
          <mxGeometry width="100" relative="1" as="geometry">
            <mxPoint x="-20" y="40.00190528170401" as="sourcePoint" />
            <mxPoint x="40" y="10" as="targetPoint" />
            <Array as="points">
              <mxPoint x="-20" y="10.001905281704012" />
              <mxPoint x="10" y="10" />
            </Array>
          </mxGeometry>
        </mxCell>
        <mxCell id="89jJZUIVo5kmt4zz9DGK-61" value="" style="endArrow=none;html=1;rounded=0;movable=1;resizable=1;rotatable=1;deletable=1;editable=1;locked=0;connectable=1;" parent="89jJZUIVo5kmt4zz9DGK-59" edge="1">
          <mxGeometry width="50" height="50" relative="1" as="geometry">
            <mxPoint y="20" as="sourcePoint" />
            <mxPoint x="20" as="targetPoint" />
          </mxGeometry>
        </mxCell>
        <mxCell id="89jJZUIVo5kmt4zz9DGK-62" value="8" style="edgeLabel;html=1;align=center;verticalAlign=middle;resizable=0;points=[];rotation=0;" parent="89jJZUIVo5kmt4zz9DGK-61" vertex="1" connectable="0">
          <mxGeometry x="0.7046" relative="1" as="geometry">
            <mxPoint x="-8" y="-4" as="offset" />
          </mxGeometry>
        </mxCell>
        <mxCell id="89jJZUIVo5kmt4zz9DGK-63" value="" style="ellipse;whiteSpace=wrap;html=1;aspect=fixed;fillColor=#FFFFFF;" parent="1" vertex="1">
          <mxGeometry x="995" y="225" width="10" height="10" as="geometry" />
        </mxCell>
        <mxCell id="89jJZUIVo5kmt4zz9DGK-73" value="" style="triangle;whiteSpace=wrap;html=1;direction=south;" parent="1" vertex="1">
          <mxGeometry x="705" y="410" width="10" height="10" as="geometry" />
        </mxCell>
        <mxCell id="89jJZUIVo5kmt4zz9DGK-75" value="" style="triangle;whiteSpace=wrap;html=1;direction=south;" parent="1" vertex="1">
          <mxGeometry x="775" y="260" width="10" height="10" as="geometry" />
        </mxCell>
        <mxCell id="89jJZUIVo5kmt4zz9DGK-76" value="" style="triangle;whiteSpace=wrap;html=1;direction=south;" parent="1" vertex="1">
          <mxGeometry x="570" y="-22" width="10" height="10" as="geometry" />
        </mxCell>
        <mxCell id="GTWBB9mIRMIXPtu_y5Ys-2" value="" style="endArrow=none;html=1;rounded=0;entryX=0;entryY=0.25;entryDx=0;entryDy=0;" parent="1" edge="1">
          <mxGeometry width="50" height="50" relative="1" as="geometry">
            <mxPoint x="770" y="320" as="sourcePoint" />
            <mxPoint x="864" y="330" as="targetPoint" />
            <Array as="points">
              <mxPoint x="780" y="320" />
              <mxPoint x="780" y="330" />
              <mxPoint x="800" y="330" />
            </Array>
          </mxGeometry>
        </mxCell>
        <mxCell id="GTWBB9mIRMIXPtu_y5Ys-19" value="DataIn" style="text;html=1;align=center;verticalAlign=middle;resizable=0;points=[];autosize=1;strokeColor=none;fillColor=none;" parent="1" vertex="1">
          <mxGeometry x="614" y="266" width="60" height="30" as="geometry" />
        </mxCell>
        <mxCell id="GTWBB9mIRMIXPtu_y5Ys-20" value="AccuIn" style="text;html=1;align=center;verticalAlign=middle;resizable=0;points=[];autosize=1;strokeColor=none;fillColor=none;" parent="1" vertex="1">
          <mxGeometry x="749" y="266" width="60" height="30" as="geometry" />
        </mxCell>
        <mxCell id="GTWBB9mIRMIXPtu_y5Ys-37" value="" style="endArrow=none;html=1;rounded=0;" parent="1" source="J4QfFlxhsdPLTSc603nR-30" edge="1">
          <mxGeometry x="-0.3333" width="50" height="50" relative="1" as="geometry">
            <mxPoint x="620" y="320" as="sourcePoint" />
            <mxPoint x="650" y="320" as="targetPoint" />
            <mxPoint as="offset" />
          </mxGeometry>
        </mxCell>
        <mxCell id="GTWBB9mIRMIXPtu_y5Ys-45" value="" style="endArrow=none;html=1;rounded=0;entryX=0.75;entryY=1;entryDx=0;entryDy=0;" parent="1" target="UxJSxMPGAu-s07Ws8PDp-24" edge="1">
          <mxGeometry width="50" height="50" relative="1" as="geometry">
            <mxPoint x="670" y="430" as="sourcePoint" />
            <mxPoint x="465" y="205" as="targetPoint" />
            <Array as="points">
              <mxPoint x="220" y="430" />
            </Array>
          </mxGeometry>
        </mxCell>
        <mxCell id="GTWBB9mIRMIXPtu_y5Ys-46" value="ID_Accu_CE" style="edgeLabel;html=1;align=center;verticalAlign=middle;resizable=0;points=[];rotation=90;" parent="GTWBB9mIRMIXPtu_y5Ys-45" vertex="1" connectable="0">
          <mxGeometry x="0.8516" relative="1" as="geometry">
            <mxPoint x="10" y="-8" as="offset" />
          </mxGeometry>
        </mxCell>
        <mxCell id="GTWBB9mIRMIXPtu_y5Ys-47" value="" style="endArrow=none;html=1;rounded=0;entryX=0.625;entryY=1;entryDx=0;entryDy=0;entryPerimeter=0;" parent="1" target="UxJSxMPGAu-s07Ws8PDp-24" edge="1">
          <mxGeometry width="50" height="50" relative="1" as="geometry">
            <mxPoint x="211" y="160" as="sourcePoint" />
            <mxPoint x="390" y="200" as="targetPoint" />
          </mxGeometry>
        </mxCell>
        <mxCell id="GTWBB9mIRMIXPtu_y5Ys-48" value="ID_Carry_CE" style="edgeLabel;html=1;align=center;verticalAlign=middle;resizable=0;points=[];rotation=90;" parent="GTWBB9mIRMIXPtu_y5Ys-47" vertex="1" connectable="0">
          <mxGeometry x="-0.1471" y="2" relative="1" as="geometry">
            <mxPoint x="2" y="55" as="offset" />
          </mxGeometry>
        </mxCell>
        <mxCell id="GTWBB9mIRMIXPtu_y5Ys-51" value="" style="endArrow=none;html=1;rounded=0;" parent="1" edge="1">
          <mxGeometry width="50" height="50" relative="1" as="geometry">
            <mxPoint x="650" y="494" as="sourcePoint" />
            <mxPoint x="670" y="494" as="targetPoint" />
          </mxGeometry>
        </mxCell>
        <mxCell id="GTWBB9mIRMIXPtu_y5Ys-52" value="nReset" style="edgeLabel;html=1;align=center;verticalAlign=middle;resizable=0;points=[];" parent="GTWBB9mIRMIXPtu_y5Ys-51" vertex="1" connectable="0">
          <mxGeometry x="-0.2105" y="1" relative="1" as="geometry">
            <mxPoint x="-30" as="offset" />
          </mxGeometry>
        </mxCell>
        <mxCell id="GTWBB9mIRMIXPtu_y5Ys-106" value="" style="group" parent="1" vertex="1" connectable="0">
          <mxGeometry x="590" y="170" width="100" height="50" as="geometry" />
        </mxCell>
        <mxCell id="GTWBB9mIRMIXPtu_y5Ys-104" value="s" style="rounded=0;whiteSpace=wrap;html=1;align=left;" parent="GTWBB9mIRMIXPtu_y5Ys-106" vertex="1">
          <mxGeometry y="1.6129032258064515" width="100" height="48.387096774193544" as="geometry" />
        </mxCell>
        <mxCell id="GTWBB9mIRMIXPtu_y5Ys-105" value="&lt;font style=&quot;font-size: 9px;&quot;&gt;&lt;br&gt;&lt;/font&gt;" style="triangle;whiteSpace=wrap;html=1;direction=south;" parent="GTWBB9mIRMIXPtu_y5Ys-106" vertex="1">
          <mxGeometry width="100" height="48.387096774193544" as="geometry" />
        </mxCell>
        <mxCell id="GTWBB9mIRMIXPtu_y5Ys-107" value="" style="group" parent="1" vertex="1" connectable="0">
          <mxGeometry x="630" y="220" width="20" height="50" as="geometry" />
        </mxCell>
        <mxCell id="GTWBB9mIRMIXPtu_y5Ys-58" value="" style="shape=link;html=1;rounded=0;movable=1;resizable=1;rotatable=1;deletable=1;editable=1;locked=0;connectable=1;" parent="GTWBB9mIRMIXPtu_y5Ys-107" edge="1">
          <mxGeometry width="100" relative="1" as="geometry">
            <mxPoint x="10" y="40" as="sourcePoint" />
            <mxPoint x="10" as="targetPoint" />
          </mxGeometry>
        </mxCell>
        <mxCell id="GTWBB9mIRMIXPtu_y5Ys-59" value="" style="endArrow=none;html=1;rounded=0;movable=1;resizable=1;rotatable=1;deletable=1;editable=1;locked=0;connectable=1;" parent="GTWBB9mIRMIXPtu_y5Ys-107" edge="1">
          <mxGeometry width="50" height="50" relative="1" as="geometry">
            <mxPoint y="29.998094718295988" as="sourcePoint" />
            <mxPoint x="20" y="9.998094718295988" as="targetPoint" />
          </mxGeometry>
        </mxCell>
        <mxCell id="GTWBB9mIRMIXPtu_y5Ys-60" value="8" style="edgeLabel;html=1;align=center;verticalAlign=middle;resizable=0;points=[];rotation=0;container=0;" parent="GTWBB9mIRMIXPtu_y5Ys-59" vertex="1" connectable="0">
          <mxGeometry x="0.7046" relative="1" as="geometry">
            <mxPoint x="-17" y="4" as="offset" />
          </mxGeometry>
        </mxCell>
        <mxCell id="GTWBB9mIRMIXPtu_y5Ys-61" value="" style="triangle;whiteSpace=wrap;html=1;direction=south;" parent="GTWBB9mIRMIXPtu_y5Ys-107" vertex="1">
          <mxGeometry x="5.000000000000114" y="40" width="10" height="10" as="geometry" />
        </mxCell>
        <mxCell id="GTWBB9mIRMIXPtu_y5Ys-21" value="" style="group" parent="1" vertex="1" connectable="0">
          <mxGeometry x="596" y="289.9984138786749" width="20" height="20" as="geometry" />
        </mxCell>
        <mxCell id="GTWBB9mIRMIXPtu_y5Ys-22" value="" style="endArrow=none;html=1;rounded=0;movable=1;resizable=1;rotatable=1;deletable=1;editable=1;locked=0;connectable=1;" parent="GTWBB9mIRMIXPtu_y5Ys-21" edge="1">
          <mxGeometry width="50" height="50" relative="1" as="geometry">
            <mxPoint y="20" as="sourcePoint" />
            <mxPoint x="20" as="targetPoint" />
          </mxGeometry>
        </mxCell>
        <mxCell id="GTWBB9mIRMIXPtu_y5Ys-23" value="3" style="edgeLabel;html=1;align=center;verticalAlign=middle;resizable=0;points=[];rotation=0;" parent="GTWBB9mIRMIXPtu_y5Ys-22" vertex="1" connectable="0">
          <mxGeometry x="0.7046" relative="1" as="geometry">
            <mxPoint x="-9" y="-3" as="offset" />
          </mxGeometry>
        </mxCell>
        <mxCell id="GTWBB9mIRMIXPtu_y5Ys-24" value="" style="shape=link;html=1;rounded=0;movable=1;resizable=1;rotatable=1;deletable=1;editable=1;locked=0;connectable=1;exitX=1.014;exitY=0.905;exitDx=0;exitDy=0;exitPerimeter=0;" parent="1" source="UxJSxMPGAu-s07Ws8PDp-24" edge="1">
          <mxGeometry width="100" relative="1" as="geometry">
            <mxPoint x="480" y="179.99841387867488" as="sourcePoint" />
            <mxPoint x="620" y="300" as="targetPoint" />
            <Array as="points">
              <mxPoint x="360" y="97" />
              <mxPoint x="360" y="300" />
            </Array>
          </mxGeometry>
        </mxCell>
        <mxCell id="GTWBB9mIRMIXPtu_y5Ys-126" value="" style="endArrow=none;html=1;rounded=0;movable=1;resizable=1;rotatable=1;deletable=1;editable=1;locked=0;connectable=1;" parent="1" edge="1">
          <mxGeometry width="50" height="50" relative="1" as="geometry">
            <mxPoint x="597" y="154.998094718296" as="sourcePoint" />
            <mxPoint x="617" y="134.998094718296" as="targetPoint" />
          </mxGeometry>
        </mxCell>
        <mxCell id="GTWBB9mIRMIXPtu_y5Ys-127" value="8" style="edgeLabel;html=1;align=center;verticalAlign=middle;resizable=0;points=[];rotation=0;container=0;" parent="GTWBB9mIRMIXPtu_y5Ys-126" vertex="1" connectable="0">
          <mxGeometry x="0.7046" relative="1" as="geometry">
            <mxPoint x="-17" y="4" as="offset" />
          </mxGeometry>
        </mxCell>
        <mxCell id="GTWBB9mIRMIXPtu_y5Ys-128" value="" style="triangle;whiteSpace=wrap;html=1;direction=south;" parent="1" vertex="1">
          <mxGeometry x="602.0000000000001" y="159" width="10" height="10" as="geometry" />
        </mxCell>
        <mxCell id="GTWBB9mIRMIXPtu_y5Ys-134" value="" style="shape=link;html=1;rounded=0;movable=1;resizable=1;rotatable=1;deletable=1;editable=1;locked=0;connectable=1;entryX=0.75;entryY=0;entryDx=0;entryDy=0;exitX=0;exitY=0.5;exitDx=0;exitDy=0;strokeColor=#000000;" parent="1" source="J4QfFlxhsdPLTSc603nR-7" target="UxJSxMPGAu-s07Ws8PDp-24" edge="1">
          <mxGeometry width="100" relative="1" as="geometry">
            <mxPoint x="770" y="60" as="sourcePoint" />
            <mxPoint x="381.20000000000005" y="-590.0000000000003" as="targetPoint" />
            <Array as="points">
              <mxPoint x="640" y="20" />
              <mxPoint x="640" y="-110" />
              <mxPoint x="220" y="-110" />
            </Array>
          </mxGeometry>
        </mxCell>
        <mxCell id="GTWBB9mIRMIXPtu_y5Ys-142" value="ID_Data" style="edgeLabel;html=1;align=center;verticalAlign=middle;resizable=0;points=[];rotation=90;" parent="GTWBB9mIRMIXPtu_y5Ys-134" vertex="1" connectable="0">
          <mxGeometry x="0.8689" y="-3" relative="1" as="geometry">
            <mxPoint x="-9" y="-18" as="offset" />
          </mxGeometry>
        </mxCell>
        <mxCell id="GTWBB9mIRMIXPtu_y5Ys-135" value="" style="endArrow=none;html=1;rounded=0;movable=1;resizable=1;rotatable=1;deletable=1;editable=1;locked=0;connectable=1;strokeColor=#7D7D7D;" parent="1" edge="1">
          <mxGeometry width="50" height="50" relative="1" as="geometry">
            <mxPoint x="210.9999999999999" y="-17.501905281704012" as="sourcePoint" />
            <mxPoint x="230.9999999999999" y="-37.50190528170401" as="targetPoint" />
          </mxGeometry>
        </mxCell>
        <mxCell id="GTWBB9mIRMIXPtu_y5Ys-136" value="8" style="edgeLabel;html=1;align=center;verticalAlign=middle;resizable=0;points=[];rotation=0;container=0;" parent="GTWBB9mIRMIXPtu_y5Ys-135" vertex="1" connectable="0">
          <mxGeometry x="0.7046" relative="1" as="geometry">
            <mxPoint x="-17" y="4" as="offset" />
          </mxGeometry>
        </mxCell>
        <mxCell id="GTWBB9mIRMIXPtu_y5Ys-148" value="CE" style="text;html=1;align=left;verticalAlign=middle;resizable=0;points=[];autosize=1;strokeColor=none;fillColor=none;" parent="1" vertex="1">
          <mxGeometry x="670" y="415" width="40" height="30" as="geometry" />
        </mxCell>
        <mxCell id="J4QfFlxhsdPLTSc603nR-22" value="" style="endArrow=none;html=1;rounded=0;exitX=0.25;exitY=0;exitDx=0;exitDy=0;entryX=0.008;entryY=0.637;entryDx=0;entryDy=0;entryPerimeter=0;" parent="1" source="UxJSxMPGAu-s07Ws8PDp-24" target="J4QfFlxhsdPLTSc603nR-8" edge="1">
          <mxGeometry width="50" height="50" relative="1" as="geometry">
            <mxPoint x="320" y="-35" as="sourcePoint" />
            <mxPoint x="790" y="40" as="targetPoint" />
            <Array as="points">
              <mxPoint x="181" y="-130" />
              <mxPoint x="660" y="-130" />
              <mxPoint x="660" />
            </Array>
          </mxGeometry>
        </mxCell>
        <mxCell id="J4QfFlxhsdPLTSc603nR-23" value="ID_DataMem_CE" style="edgeLabel;html=1;align=center;verticalAlign=middle;resizable=0;points=[];rotation=90;" parent="J4QfFlxhsdPLTSc603nR-22" vertex="1" connectable="0">
          <mxGeometry x="-0.7855" relative="1" as="geometry">
            <mxPoint x="-10" y="23" as="offset" />
          </mxGeometry>
        </mxCell>
        <mxCell id="J4QfFlxhsdPLTSc603nR-25" value="" style="triangle;whiteSpace=wrap;html=1;direction=south;" parent="1" vertex="1">
          <mxGeometry x="665" y="159.5" width="10" height="10" as="geometry" />
        </mxCell>
        <mxCell id="J4QfFlxhsdPLTSc603nR-28" value="" style="endArrow=none;html=1;rounded=0;movable=1;resizable=1;rotatable=1;deletable=1;editable=1;locked=0;connectable=1;" parent="1" edge="1">
          <mxGeometry width="50" height="50" relative="1" as="geometry">
            <mxPoint x="659.9999999999999" y="154.498094718296" as="sourcePoint" />
            <mxPoint x="679.9999999999999" y="134.498094718296" as="targetPoint" />
          </mxGeometry>
        </mxCell>
        <mxCell id="J4QfFlxhsdPLTSc603nR-29" value="8" style="edgeLabel;html=1;align=center;verticalAlign=middle;resizable=0;points=[];rotation=0;container=0;" parent="J4QfFlxhsdPLTSc603nR-28" vertex="1" connectable="0">
          <mxGeometry x="0.7046" relative="1" as="geometry">
            <mxPoint x="-17" y="4" as="offset" />
          </mxGeometry>
        </mxCell>
        <mxCell id="J4QfFlxhsdPLTSc603nR-27" value="" style="shape=link;html=1;rounded=0;movable=1;resizable=1;rotatable=1;deletable=1;editable=1;locked=0;connectable=1;exitX=0;exitY=0.5;exitDx=0;exitDy=0;entryX=0.5;entryY=1;entryDx=0;entryDy=0;" parent="1" source="J4QfFlxhsdPLTSc603nR-25" target="J4QfFlxhsdPLTSc603nR-3" edge="1">
          <mxGeometry width="100" relative="1" as="geometry">
            <mxPoint x="750" y="180" as="sourcePoint" />
            <mxPoint x="840" y="120" as="targetPoint" />
            <Array as="points">
              <mxPoint x="670" y="130" />
              <mxPoint x="770" y="130" />
              <mxPoint x="830" y="130" />
            </Array>
          </mxGeometry>
        </mxCell>
        <mxCell id="J4QfFlxhsdPLTSc603nR-33" value="" style="endArrow=none;html=1;rounded=0;" parent="1" target="J4QfFlxhsdPLTSc603nR-30" edge="1">
          <mxGeometry x="-0.3333" width="50" height="50" relative="1" as="geometry">
            <mxPoint x="620" y="320" as="sourcePoint" />
            <mxPoint x="650" y="320" as="targetPoint" />
            <mxPoint as="offset" />
          </mxGeometry>
        </mxCell>
        <mxCell id="J4QfFlxhsdPLTSc603nR-34" value="RegCarry_2_ALU" style="edgeLabel;html=1;align=center;verticalAlign=middle;resizable=0;points=[];" parent="J4QfFlxhsdPLTSc603nR-33" vertex="1" connectable="0">
          <mxGeometry x="-0.1864" relative="1" as="geometry">
            <mxPoint x="-51" as="offset" />
          </mxGeometry>
        </mxCell>
        <mxCell id="J4QfFlxhsdPLTSc603nR-30" value="" style="triangle;whiteSpace=wrap;html=1;direction=east;fillColor=#000000;" parent="1" vertex="1">
          <mxGeometry x="615" y="315" width="10" height="10" as="geometry" />
        </mxCell>
        <mxCell id="J4QfFlxhsdPLTSc603nR-46" value="" style="group" parent="1" vertex="1" connectable="0">
          <mxGeometry x="850" y="300" width="94" height="130" as="geometry" />
        </mxCell>
        <mxCell id="89jJZUIVo5kmt4zz9DGK-86" value="" style="endArrow=none;html=1;rounded=0;entryX=0.008;entryY=0.124;entryDx=0;entryDy=0;entryPerimeter=0;" parent="J4QfFlxhsdPLTSc603nR-46" target="89jJZUIVo5kmt4zz9DGK-80" edge="1">
          <mxGeometry width="50" height="50" relative="1" as="geometry">
            <mxPoint y="10" as="sourcePoint" />
            <mxPoint x="-10" as="targetPoint" />
          </mxGeometry>
        </mxCell>
        <mxCell id="GTWBB9mIRMIXPtu_y5Ys-35" value="ID_Carry_CE" style="edgeLabel;html=1;align=center;verticalAlign=middle;resizable=0;points=[];" parent="89jJZUIVo5kmt4zz9DGK-86" vertex="1" connectable="0">
          <mxGeometry x="0.1976" y="1" relative="1" as="geometry">
            <mxPoint x="-37" y="1" as="offset" />
          </mxGeometry>
        </mxCell>
        <mxCell id="GTWBB9mIRMIXPtu_y5Ys-8" value="" style="shape=or;whiteSpace=wrap;html=1;direction=north;" parent="J4QfFlxhsdPLTSc603nR-46" vertex="1">
          <mxGeometry x="30" y="90" width="23" height="20" as="geometry" />
        </mxCell>
        <mxCell id="GTWBB9mIRMIXPtu_y5Ys-9" value="" style="endArrow=none;html=1;rounded=0;exitX=1;exitY=0.5;exitDx=0;exitDy=0;exitPerimeter=0;" parent="J4QfFlxhsdPLTSc603nR-46" source="GTWBB9mIRMIXPtu_y5Ys-8" target="89jJZUIVo5kmt4zz9DGK-80" edge="1">
          <mxGeometry width="50" height="50" relative="1" as="geometry">
            <mxPoint x="-40" y="160" as="sourcePoint" />
            <mxPoint x="10" y="110" as="targetPoint" />
          </mxGeometry>
        </mxCell>
        <mxCell id="GTWBB9mIRMIXPtu_y5Ys-11" value="" style="endArrow=none;html=1;rounded=0;entryX=0;entryY=0.25;entryDx=0;entryDy=0;entryPerimeter=0;" parent="J4QfFlxhsdPLTSc603nR-46" edge="1">
          <mxGeometry width="50" height="50" relative="1" as="geometry">
            <mxPoint x="46.91999999999996" y="130" as="sourcePoint" />
            <mxPoint x="46.91999999999996" y="110" as="targetPoint" />
          </mxGeometry>
        </mxCell>
        <mxCell id="GTWBB9mIRMIXPtu_y5Ys-15" value="ID_Carry_CE" style="edgeLabel;html=1;align=center;verticalAlign=middle;resizable=0;points=[];rotation=90;" parent="GTWBB9mIRMIXPtu_y5Ys-11" vertex="1" connectable="0">
          <mxGeometry x="-0.6042" y="-1" relative="1" as="geometry">
            <mxPoint y="40" as="offset" />
          </mxGeometry>
        </mxCell>
        <mxCell id="GTWBB9mIRMIXPtu_y5Ys-12" value="" style="endArrow=none;html=1;rounded=0;entryX=0;entryY=0.25;entryDx=0;entryDy=0;entryPerimeter=0;" parent="J4QfFlxhsdPLTSc603nR-46" edge="1">
          <mxGeometry width="50" height="50" relative="1" as="geometry">
            <mxPoint x="36" y="130" as="sourcePoint" />
            <mxPoint x="36" y="110" as="targetPoint" />
          </mxGeometry>
        </mxCell>
        <mxCell id="GTWBB9mIRMIXPtu_y5Ys-13" value="nReset" style="edgeLabel;html=1;align=center;verticalAlign=middle;resizable=0;points=[];rotation=90;" parent="GTWBB9mIRMIXPtu_y5Ys-12" vertex="1" connectable="0">
          <mxGeometry x="-0.5364" relative="1" as="geometry">
            <mxPoint x="-2" y="25" as="offset" />
          </mxGeometry>
        </mxCell>
        <mxCell id="89jJZUIVo5kmt4zz9DGK-82" value="" style="endArrow=none;html=1;rounded=0;entryX=0;entryY=0.5;entryDx=0;entryDy=0;" parent="J4QfFlxhsdPLTSc603nR-46" target="89jJZUIVo5kmt4zz9DGK-81" edge="1">
          <mxGeometry width="50" height="50" relative="1" as="geometry">
            <mxPoint y="60" as="sourcePoint" />
            <mxPoint y="60" as="targetPoint" />
          </mxGeometry>
        </mxCell>
        <mxCell id="89jJZUIVo5kmt4zz9DGK-83" value="&lt;font style=&quot;font-size: 11px;&quot;&gt;clk&lt;/font&gt;" style="edgeLabel;html=1;align=center;verticalAlign=middle;resizable=0;points=[];container=0;" parent="89jJZUIVo5kmt4zz9DGK-82" vertex="1" connectable="0">
          <mxGeometry x="-0.1933" y="1" relative="1" as="geometry">
            <mxPoint x="-15" as="offset" />
          </mxGeometry>
        </mxCell>
        <mxCell id="GTWBB9mIRMIXPtu_y5Ys-6" value="" style="group" parent="J4QfFlxhsdPLTSc603nR-46" vertex="1" connectable="0">
          <mxGeometry x="14" width="80" height="80" as="geometry" />
        </mxCell>
        <mxCell id="89jJZUIVo5kmt4zz9DGK-80" value="&lt;font style=&quot;font-size: 14px;&quot;&gt;CY&lt;/font&gt;" style="rounded=0;whiteSpace=wrap;html=1;rotation=0;container=0;" parent="GTWBB9mIRMIXPtu_y5Ys-6" vertex="1">
          <mxGeometry width="56" height="80" as="geometry" />
        </mxCell>
        <mxCell id="89jJZUIVo5kmt4zz9DGK-81" value="" style="triangle;whiteSpace=wrap;html=1;container=0;" parent="GTWBB9mIRMIXPtu_y5Ys-6" vertex="1">
          <mxGeometry y="50" width="10" height="20" as="geometry" />
        </mxCell>
        <mxCell id="GTWBB9mIRMIXPtu_y5Ys-4" value="CE&amp;nbsp; &amp;nbsp; &amp;nbsp; &amp;nbsp; Q&lt;div&gt;D&lt;/div&gt;" style="text;html=1;align=left;verticalAlign=middle;resizable=0;points=[];autosize=1;strokeColor=none;fillColor=none;" parent="GTWBB9mIRMIXPtu_y5Ys-6" vertex="1">
          <mxGeometry width="80" height="40" as="geometry" />
        </mxCell>
        <mxCell id="GTWBB9mIRMIXPtu_y5Ys-7" value="" style="endArrow=none;html=1;rounded=0;entryX=0.323;entryY=0.481;entryDx=0;entryDy=0;entryPerimeter=0;" parent="GTWBB9mIRMIXPtu_y5Ys-6" target="J4QfFlxhsdPLTSc603nR-35" edge="1">
          <mxGeometry width="50" height="50" relative="1" as="geometry">
            <mxPoint x="56" y="10" as="sourcePoint" />
            <mxPoint x="70" y="10" as="targetPoint" />
          </mxGeometry>
        </mxCell>
        <mxCell id="GTWBB9mIRMIXPtu_y5Ys-36" value="RegCarry_2_ALU" style="edgeLabel;html=1;align=center;verticalAlign=middle;resizable=0;points=[];" parent="GTWBB9mIRMIXPtu_y5Ys-7" vertex="1" connectable="0">
          <mxGeometry x="0.6054" relative="1" as="geometry">
            <mxPoint x="16" y="-20" as="offset" />
          </mxGeometry>
        </mxCell>
        <mxCell id="J4QfFlxhsdPLTSc603nR-35" value="" style="triangle;whiteSpace=wrap;html=1;direction=east;fillColor=#000000;" parent="GTWBB9mIRMIXPtu_y5Ys-6" vertex="1">
          <mxGeometry x="70" y="5" width="10" height="10" as="geometry" />
        </mxCell>
        <mxCell id="Vn67G1RCDc63DcBmleLq-3" value="" style="shape=link;html=1;rounded=0;movable=1;resizable=1;rotatable=1;deletable=1;editable=1;locked=0;connectable=1;entryX=1.003;entryY=0.682;entryDx=0;entryDy=0;entryPerimeter=0;exitX=0.277;exitY=0.535;exitDx=0;exitDy=0;exitPerimeter=0;" parent="1" source="Vn67G1RCDc63DcBmleLq-5" target="UxJSxMPGAu-s07Ws8PDp-24" edge="1">
          <mxGeometry width="100" relative="1" as="geometry">
            <mxPoint x="580" y="205" as="sourcePoint" />
            <mxPoint x="430" y="70" as="targetPoint" />
            <Array as="points">
              <mxPoint x="380" y="205" />
              <mxPoint x="380" y="70" />
            </Array>
          </mxGeometry>
        </mxCell>
        <mxCell id="WVghU-m7wnbgHGP4nutL-2" value="ID_ALUCode" style="edgeLabel;html=1;align=center;verticalAlign=middle;resizable=0;points=[];" parent="Vn67G1RCDc63DcBmleLq-3" vertex="1" connectable="0">
          <mxGeometry x="0.7691" y="20" relative="1" as="geometry">
            <mxPoint x="-6" y="-5" as="offset" />
          </mxGeometry>
        </mxCell>
        <mxCell id="Vn67G1RCDc63DcBmleLq-4" value="ID_SelDataSource" style="edgeLabel;html=1;align=center;verticalAlign=middle;resizable=0;points=[];" parent="Vn67G1RCDc63DcBmleLq-3" vertex="1" connectable="0">
          <mxGeometry x="0.7293" y="-2" relative="1" as="geometry">
            <mxPoint x="-14" y="-8" as="offset" />
          </mxGeometry>
        </mxCell>
        <mxCell id="Vn67G1RCDc63DcBmleLq-5" value="" style="triangle;whiteSpace=wrap;html=1;direction=east;" parent="1" vertex="1">
          <mxGeometry x="580.0000000000001" y="199.5" width="10" height="10" as="geometry" />
        </mxCell>
        <mxCell id="Vn67G1RCDc63DcBmleLq-8" value="" style="endArrow=none;html=1;rounded=0;movable=1;resizable=1;rotatable=1;deletable=1;editable=1;locked=0;connectable=1;" parent="1" edge="1">
          <mxGeometry width="50" height="50" relative="1" as="geometry">
            <mxPoint x="550" y="214.998094718296" as="sourcePoint" />
            <mxPoint x="570" y="195" as="targetPoint" />
          </mxGeometry>
        </mxCell>
        <mxCell id="Vn67G1RCDc63DcBmleLq-9" value="2" style="edgeLabel;html=1;align=center;verticalAlign=middle;resizable=0;points=[];rotation=0;container=0;" parent="Vn67G1RCDc63DcBmleLq-8" vertex="1" connectable="0">
          <mxGeometry x="0.7046" relative="1" as="geometry">
            <mxPoint x="-7" y="-8" as="offset" />
          </mxGeometry>
        </mxCell>
        <mxCell id="GTWBB9mIRMIXPtu_y5Ys-40" value="" style="shape=link;html=1;rounded=0;movable=1;resizable=1;rotatable=1;deletable=1;editable=1;locked=0;connectable=1;exitX=1.006;exitY=0.288;exitDx=0;exitDy=0;exitPerimeter=0;entryX=0;entryY=0.5;entryDx=0;entryDy=0;" parent="1" source="UxJSxMPGAu-s07Ws8PDp-24" target="GTWBB9mIRMIXPtu_y5Ys-43" edge="1">
          <mxGeometry width="100" relative="1" as="geometry">
            <mxPoint x="480" y="22.708094718295996" as="sourcePoint" />
            <mxPoint x="430" y="60" as="targetPoint" />
            <Array as="points">
              <mxPoint x="410" y="23" />
            </Array>
          </mxGeometry>
        </mxCell>
        <mxCell id="GTWBB9mIRMIXPtu_y5Ys-44" value="ID_RegAddr" style="edgeLabel;html=1;align=center;verticalAlign=middle;resizable=0;points=[];" parent="GTWBB9mIRMIXPtu_y5Ys-40" vertex="1" connectable="0">
          <mxGeometry x="0.432" y="1" relative="1" as="geometry">
            <mxPoint x="-152" y="-11" as="offset" />
          </mxGeometry>
        </mxCell>
        <mxCell id="GTWBB9mIRMIXPtu_y5Ys-41" value="" style="endArrow=none;html=1;rounded=0;movable=1;resizable=1;rotatable=1;deletable=1;editable=1;locked=0;connectable=1;" parent="1" edge="1">
          <mxGeometry width="50" height="50" relative="1" as="geometry">
            <mxPoint x="477" y="32.99809471829599" as="sourcePoint" />
            <mxPoint x="497" y="12.998094718295988" as="targetPoint" />
          </mxGeometry>
        </mxCell>
        <mxCell id="GTWBB9mIRMIXPtu_y5Ys-42" value="4" style="edgeLabel;html=1;align=center;verticalAlign=middle;resizable=0;points=[];rotation=0;" parent="GTWBB9mIRMIXPtu_y5Ys-41" vertex="1" connectable="0">
          <mxGeometry x="0.7046" relative="1" as="geometry">
            <mxPoint x="-8" y="-4" as="offset" />
          </mxGeometry>
        </mxCell>
        <mxCell id="J4QfFlxhsdPLTSc603nR-13" value="" style="triangle;whiteSpace=wrap;html=1;direction=south;" parent="1" vertex="1">
          <mxGeometry x="825.0000000000001" y="-16.52173913043478" width="10" height="6.521739130434783" as="geometry" />
        </mxCell>
        <mxCell id="J4QfFlxhsdPLTSc603nR-10" value="" style="shape=link;html=1;rounded=0;movable=1;resizable=1;rotatable=1;deletable=1;editable=1;locked=0;connectable=1;" parent="1" target="WVghU-m7wnbgHGP4nutL-6" edge="1">
          <mxGeometry width="100" relative="1" as="geometry">
            <mxPoint x="830" y="-16.52173913043478" as="sourcePoint" />
            <mxPoint x="830" y="-60" as="targetPoint" />
          </mxGeometry>
        </mxCell>
        <mxCell id="WVghU-m7wnbgHGP4nutL-6" value="" style="ellipse;whiteSpace=wrap;html=1;aspect=fixed;fillColor=#FFFFFF;" parent="1" vertex="1">
          <mxGeometry x="826.7400000000001" y="-83.26" width="6.521739130434783" height="6.521739130434783" as="geometry" />
        </mxCell>
        <mxCell id="WVghU-m7wnbgHGP4nutL-7" value="" style="endArrow=none;html=1;rounded=0;movable=1;resizable=1;rotatable=1;deletable=1;editable=1;locked=0;connectable=1;" parent="1" edge="1">
          <mxGeometry width="50" height="50" relative="1" as="geometry">
            <mxPoint x="820" y="-26.002381602130015" as="sourcePoint" />
            <mxPoint x="840" y="-46" as="targetPoint" />
          </mxGeometry>
        </mxCell>
        <mxCell id="WVghU-m7wnbgHGP4nutL-8" value="8" style="edgeLabel;html=1;align=center;verticalAlign=middle;resizable=0;points=[];rotation=0;container=0;" parent="WVghU-m7wnbgHGP4nutL-7" vertex="1" connectable="0">
          <mxGeometry x="0.7046" relative="1" as="geometry">
            <mxPoint x="-17" y="4" as="offset" />
          </mxGeometry>
        </mxCell>
        <mxCell id="GTWBB9mIRMIXPtu_y5Ys-114" value="" style="shape=link;html=1;rounded=0;movable=1;resizable=1;rotatable=1;deletable=1;editable=1;locked=0;connectable=1;entryX=0.5;entryY=1;entryDx=0;entryDy=0;exitX=0;exitY=0.5;exitDx=0;exitDy=0;" parent="1" source="GTWBB9mIRMIXPtu_y5Ys-128" target="89jJZUIVo5kmt4zz9DGK-15" edge="1">
          <mxGeometry width="100" relative="1" as="geometry">
            <mxPoint x="560" y="150" as="sourcePoint" />
            <mxPoint x="640" y="91" as="targetPoint" />
            <Array as="points">
              <mxPoint x="607" y="130" />
              <mxPoint x="550" y="130" />
            </Array>
          </mxGeometry>
        </mxCell>
        <mxCell id="GTWBB9mIRMIXPtu_y5Ys-115" value="" style="endArrow=none;html=1;rounded=0;movable=1;resizable=1;rotatable=1;deletable=1;editable=1;locked=0;connectable=1;strokeColor=default;" parent="1" edge="1">
          <mxGeometry width="50" height="50" relative="1" as="geometry">
            <mxPoint x="630" y="154.998094718296" as="sourcePoint" />
            <mxPoint x="650" y="134.998094718296" as="targetPoint" />
          </mxGeometry>
        </mxCell>
        <mxCell id="GTWBB9mIRMIXPtu_y5Ys-116" value="8" style="edgeLabel;html=1;align=center;verticalAlign=middle;resizable=0;points=[];rotation=0;container=0;" parent="GTWBB9mIRMIXPtu_y5Ys-115" vertex="1" connectable="0">
          <mxGeometry x="0.7046" relative="1" as="geometry">
            <mxPoint x="-17" y="4" as="offset" />
          </mxGeometry>
        </mxCell>
        <mxCell id="GTWBB9mIRMIXPtu_y5Ys-117" value="" style="triangle;whiteSpace=wrap;html=1;direction=south;" parent="1" vertex="1">
          <mxGeometry x="635.0000000000001" y="159" width="10" height="10" as="geometry" />
        </mxCell>
        <mxCell id="WVghU-m7wnbgHGP4nutL-14" value="" style="group" parent="1" vertex="1" connectable="0">
          <mxGeometry x="-90" y="129.99841387867488" width="20" height="20" as="geometry" />
        </mxCell>
        <mxCell id="WVghU-m7wnbgHGP4nutL-15" value="" style="endArrow=none;html=1;rounded=0;movable=1;resizable=1;rotatable=1;deletable=1;editable=1;locked=0;connectable=1;" parent="WVghU-m7wnbgHGP4nutL-14" edge="1">
          <mxGeometry width="50" height="50" relative="1" as="geometry">
            <mxPoint y="20" as="sourcePoint" />
            <mxPoint x="20" as="targetPoint" />
          </mxGeometry>
        </mxCell>
        <mxCell id="WVghU-m7wnbgHGP4nutL-16" value="6" style="edgeLabel;html=1;align=center;verticalAlign=middle;resizable=0;points=[];rotation=0;" parent="WVghU-m7wnbgHGP4nutL-15" vertex="1" connectable="0">
          <mxGeometry x="0.7046" relative="1" as="geometry">
            <mxPoint x="-17" y="5" as="offset" />
          </mxGeometry>
        </mxCell>
        <mxCell id="WVghU-m7wnbgHGP4nutL-17" value="" style="shape=link;html=1;rounded=0;movable=1;resizable=1;rotatable=1;deletable=1;editable=1;locked=0;connectable=1;entryX=0.25;entryY=1;entryDx=0;entryDy=0;exitX=0.226;exitY=0.518;exitDx=0;exitDy=0;exitPerimeter=0;" parent="1" source="WVghU-m7wnbgHGP4nutL-19" target="UxJSxMPGAu-s07Ws8PDp-24" edge="1">
          <mxGeometry width="100" relative="1" as="geometry">
            <mxPoint x="-80" y="120" as="sourcePoint" />
            <mxPoint x="167" y="159.49841387867488" as="targetPoint" />
            <Array as="points">
              <mxPoint x="-80" y="160" />
              <mxPoint x="137" y="159.49841387867488" />
              <mxPoint x="181" y="160" />
            </Array>
          </mxGeometry>
        </mxCell>
        <mxCell id="WVghU-m7wnbgHGP4nutL-18" value="ID_InsAddr" style="edgeLabel;html=1;align=center;verticalAlign=middle;resizable=0;points=[];" parent="WVghU-m7wnbgHGP4nutL-17" vertex="1" connectable="0">
          <mxGeometry x="0.5185" y="-2" relative="1" as="geometry">
            <mxPoint x="2" y="-12" as="offset" />
          </mxGeometry>
        </mxCell>
        <mxCell id="WVghU-m7wnbgHGP4nutL-19" value="" style="triangle;whiteSpace=wrap;html=1;direction=north;" parent="1" vertex="1">
          <mxGeometry x="-85" y="109" width="10" height="10" as="geometry" />
        </mxCell>
        <mxCell id="WVghU-m7wnbgHGP4nutL-20" value="&lt;font style=&quot;font-size: 8px;&quot;&gt;&amp;nbsp;0&amp;nbsp; &amp;nbsp; &amp;nbsp;&amp;nbsp;&lt;span style=&quot;white-space-collapse: preserve;&quot;&gt;&amp;nbsp;       2&lt;/span&gt;&amp;nbsp; &amp;nbsp; &amp;nbsp; &amp;nbsp; &amp;nbsp;&lt;span style=&quot;white-space: pre;&quot;&gt;&lt;span style=&quot;white-space: pre;&quot;&gt;&#x9;&lt;/span&gt;1&lt;/span&gt;&lt;/font&gt;" style="text;html=1;align=center;verticalAlign=middle;resizable=1;points=[];autosize=1;strokeColor=none;fillColor=none;movable=1;rotatable=1;deletable=1;editable=1;locked=0;connectable=1;" parent="1" vertex="1">
          <mxGeometry x="587" y="162.5" width="100" height="30" as="geometry" />
        </mxCell>
        <mxCell id="BEamrTCm84vqW7usO4Hm-1" value="" style="endArrow=none;html=1;rounded=0;entryX=0.625;entryY=1;entryDx=0;entryDy=0;entryPerimeter=0;exitX=0.004;exitY=0.099;exitDx=0;exitDy=0;exitPerimeter=0;" parent="1" source="UxJSxMPGAu-s07Ws8PDp-1" edge="1">
          <mxGeometry width="50" height="50" relative="1" as="geometry">
            <mxPoint x="-200" as="sourcePoint" />
            <mxPoint x="190" y="108" as="targetPoint" />
            <Array as="points">
              <mxPoint x="-200" />
              <mxPoint x="-200" y="190" />
              <mxPoint x="190" y="190" />
            </Array>
          </mxGeometry>
        </mxCell>
        <mxCell id="BEamrTCm84vqW7usO4Hm-2" value="ID_SetPC" style="edgeLabel;html=1;align=center;verticalAlign=middle;resizable=0;points=[];rotation=0;" parent="BEamrTCm84vqW7usO4Hm-1" vertex="1" connectable="0">
          <mxGeometry x="-0.1471" y="2" relative="1" as="geometry">
            <mxPoint x="316" y="12" as="offset" />
          </mxGeometry>
        </mxCell>
        <mxCell id="5GSK0cS0PGCIOQsznBC_-4" value="" style="shape=link;html=1;rounded=0;movable=1;resizable=1;rotatable=1;deletable=1;editable=1;locked=0;connectable=1;exitX=0;exitY=0.5;exitDx=0;exitDy=0;strokeColor=#000000;" parent="1" source="GTWBB9mIRMIXPtu_y5Ys-117" target="5GSK0cS0PGCIOQsznBC_-6" edge="1">
          <mxGeometry width="100" relative="1" as="geometry">
            <mxPoint x="785" y="-231" as="sourcePoint" />
            <mxPoint x="640" y="30" as="targetPoint" />
          </mxGeometry>
        </mxCell>
        <mxCell id="5GSK0cS0PGCIOQsznBC_-6" value="" style="ellipse;whiteSpace=wrap;html=1;aspect=fixed;fillColor=#FFFFFF;strokeColor=#000000;" parent="1" vertex="1">
          <mxGeometry x="635" y="15" width="10" height="10" as="geometry" />
        </mxCell>
        <mxCell id="GTWBB9mIRMIXPtu_y5Ys-62" value="&lt;font style=&quot;font-size: 21px;&quot;&gt;INPUT&lt;/font&gt;" style="rounded=1;whiteSpace=wrap;html=1;" parent="1" vertex="1">
          <mxGeometry x="490" y="-370" width="80" height="50" as="geometry" />
        </mxCell>
        <mxCell id="GTWBB9mIRMIXPtu_y5Ys-109" value="" style="shape=link;html=1;rounded=0;movable=1;resizable=1;rotatable=1;deletable=1;editable=1;locked=0;connectable=1;entryX=0.5;entryY=1;entryDx=0;entryDy=0;" parent="1" edge="1" target="GTWBB9mIRMIXPtu_y5Ys-62">
          <mxGeometry width="100" relative="1" as="geometry">
            <mxPoint x="531.9999999999999" y="-21" as="sourcePoint" />
            <mxPoint x="531.9999999999999" y="-61" as="targetPoint" />
          </mxGeometry>
        </mxCell>
        <mxCell id="GmnKZ83CwBcU47um8lYi-23" value="inR3_reg" style="edgeLabel;html=1;align=center;verticalAlign=middle;resizable=0;points=[];" vertex="1" connectable="0" parent="GTWBB9mIRMIXPtu_y5Ys-109">
          <mxGeometry x="0.6744" y="-2" relative="1" as="geometry">
            <mxPoint x="38" y="-29" as="offset" />
          </mxGeometry>
        </mxCell>
        <mxCell id="GTWBB9mIRMIXPtu_y5Ys-110" value="" style="endArrow=none;html=1;rounded=0;movable=1;resizable=1;rotatable=1;deletable=1;editable=1;locked=0;connectable=1;" parent="1" edge="1">
          <mxGeometry width="50" height="50" relative="1" as="geometry">
            <mxPoint x="521.9999999999999" y="-31.001905281704012" as="sourcePoint" />
            <mxPoint x="541.9999999999999" y="-51.00190528170401" as="targetPoint" />
          </mxGeometry>
        </mxCell>
        <mxCell id="GTWBB9mIRMIXPtu_y5Ys-111" value="8" style="edgeLabel;html=1;align=center;verticalAlign=middle;resizable=0;points=[];rotation=0;container=0;" parent="GTWBB9mIRMIXPtu_y5Ys-110" vertex="1" connectable="0">
          <mxGeometry x="0.7046" relative="1" as="geometry">
            <mxPoint x="-17" y="4" as="offset" />
          </mxGeometry>
        </mxCell>
        <mxCell id="GTWBB9mIRMIXPtu_y5Ys-112" value="" style="triangle;whiteSpace=wrap;html=1;direction=south;" parent="1" vertex="1">
          <mxGeometry x="527" y="-21" width="10" height="10" as="geometry" />
        </mxCell>
        <mxCell id="GmnKZ83CwBcU47um8lYi-3" value="&lt;font style=&quot;font-size: 16px;&quot;&gt;SECTION 1&lt;/font&gt;" style="swimlane;whiteSpace=wrap;html=1;fillColor=#f5f5f5;fontColor=#333333;strokeColor=#666666;dashed=1;" vertex="1" parent="1">
          <mxGeometry x="-320" y="-230" width="745" height="820" as="geometry" />
        </mxCell>
        <mxCell id="GmnKZ83CwBcU47um8lYi-4" value="&lt;font style=&quot;font-size: 22px;&quot;&gt;TOP MODULE&lt;/font&gt;" style="swimlane;horizontal=0;whiteSpace=wrap;html=1;fillColor=#f5f5f5;fontColor=#333333;strokeColor=#666666;dashed=1;" vertex="1" parent="1">
          <mxGeometry x="-330" y="-230" width="1390" height="820" as="geometry" />
        </mxCell>
        <mxCell id="GmnKZ83CwBcU47um8lYi-14" value="" style="shape=link;html=1;rounded=0;movable=1;resizable=1;rotatable=1;deletable=1;editable=1;locked=0;connectable=1;fillColor=#f8cecc;strokeColor=#b85450;entryX=0;entryY=0.5;entryDx=0;entryDy=0;" edge="1" parent="GmnKZ83CwBcU47um8lYi-4" target="GmnKZ83CwBcU47um8lYi-24">
          <mxGeometry width="100" relative="1" as="geometry">
            <mxPoint x="1160" y="146.73826086956524" as="sourcePoint" />
            <mxPoint x="400" y="-160" as="targetPoint" />
            <Array as="points">
              <mxPoint x="1160" y="-210" />
              <mxPoint x="370" y="-210" />
              <mxPoint x="370" y="-160" />
            </Array>
          </mxGeometry>
        </mxCell>
        <mxCell id="GmnKZ83CwBcU47um8lYi-15" value="&lt;font color=&quot;#b85450&quot;&gt;Accu_out_wire&lt;/font&gt;" style="edgeLabel;html=1;align=center;verticalAlign=middle;resizable=0;points=[];" vertex="1" connectable="0" parent="GmnKZ83CwBcU47um8lYi-14">
          <mxGeometry x="0.9575" relative="1" as="geometry">
            <mxPoint x="-67" y="-20" as="offset" />
          </mxGeometry>
        </mxCell>
        <mxCell id="GmnKZ83CwBcU47um8lYi-18" value="" style="ellipse;whiteSpace=wrap;html=1;aspect=fixed;" vertex="1" parent="GmnKZ83CwBcU47um8lYi-4">
          <mxGeometry x="302" y="273" width="10" height="10" as="geometry" />
        </mxCell>
        <mxCell id="GmnKZ83CwBcU47um8lYi-24" value="" style="triangle;whiteSpace=wrap;html=1;direction=east;fillColor=#f8cecc;strokeColor=#b85450;" vertex="1" parent="GmnKZ83CwBcU47um8lYi-4">
          <mxGeometry x="400" y="-165" width="10" height="10" as="geometry" />
        </mxCell>
        <mxCell id="GmnKZ83CwBcU47um8lYi-6" value="" style="group" vertex="1" connectable="0" parent="1">
          <mxGeometry x="60" y="-400" width="100" height="120" as="geometry" />
        </mxCell>
        <mxCell id="1Ag-ZphhvrMZmSQ8pP7e-2" value="&lt;font color=&quot;#b85450&quot; style=&quot;&quot;&gt;&lt;span style=&quot;font-size: 18px;&quot;&gt;DebMod&lt;/span&gt;&lt;br&gt;&lt;font style=&quot;font-size: 12px;&quot;&gt;Debug&lt;br&gt;Module&lt;/font&gt;&lt;/font&gt;" style="rounded=0;whiteSpace=wrap;html=1;rotation=0;fillColor=#f8cecc;strokeColor=#b85450;container=0;" parent="GmnKZ83CwBcU47um8lYi-6" vertex="1">
          <mxGeometry x="20" width="80" height="120" as="geometry" />
        </mxCell>
        <mxCell id="1Ag-ZphhvrMZmSQ8pP7e-3" value="" style="triangle;whiteSpace=wrap;html=1;container=0;fillColor=#f8cecc;strokeColor=#b85450;" parent="GmnKZ83CwBcU47um8lYi-6" vertex="1">
          <mxGeometry x="20" y="90" width="10" height="20" as="geometry" />
        </mxCell>
        <mxCell id="1Ag-ZphhvrMZmSQ8pP7e-4" value="" style="endArrow=none;html=1;rounded=0;entryX=0;entryY=0.5;entryDx=0;entryDy=0;fillColor=#f8cecc;strokeColor=#b85450;" parent="GmnKZ83CwBcU47um8lYi-6" target="1Ag-ZphhvrMZmSQ8pP7e-3" edge="1">
          <mxGeometry width="50" height="50" relative="1" as="geometry">
            <mxPoint y="100" as="sourcePoint" />
            <mxPoint y="100" as="targetPoint" />
          </mxGeometry>
        </mxCell>
        <mxCell id="1Ag-ZphhvrMZmSQ8pP7e-5" value="&lt;font style=&quot;font-size: 14px;&quot;&gt;clk&lt;/font&gt;" style="edgeLabel;html=1;align=center;verticalAlign=middle;resizable=0;points=[];container=0;fontColor=#B85450;" parent="1Ag-ZphhvrMZmSQ8pP7e-4" vertex="1" connectable="0">
          <mxGeometry x="-0.1933" y="1" relative="1" as="geometry">
            <mxPoint x="-15" as="offset" />
          </mxGeometry>
        </mxCell>
        <mxCell id="1Ag-ZphhvrMZmSQ8pP7e-6" value="" style="endArrow=none;html=1;rounded=0;fillColor=#f8cecc;strokeColor=#b85450;" parent="GmnKZ83CwBcU47um8lYi-6" edge="1">
          <mxGeometry width="50" height="50" relative="1" as="geometry">
            <mxPoint x="-525" y="-239" as="sourcePoint" />
            <mxPoint x="-505" y="-239" as="targetPoint" />
          </mxGeometry>
        </mxCell>
        <mxCell id="1Ag-ZphhvrMZmSQ8pP7e-7" value="nReset" style="edgeLabel;html=1;align=center;verticalAlign=middle;resizable=0;points=[];container=0;fontColor=#B85450;" parent="1Ag-ZphhvrMZmSQ8pP7e-6" vertex="1" connectable="0">
          <mxGeometry x="-0.2105" y="1" relative="1" as="geometry">
            <mxPoint x="-30" as="offset" />
          </mxGeometry>
        </mxCell>
        <mxCell id="GmnKZ83CwBcU47um8lYi-21" value="" style="endArrow=none;html=1;rounded=0;movable=1;resizable=1;rotatable=1;deletable=1;editable=1;locked=0;connectable=1;fillColor=#f8cecc;strokeColor=#B85450;" edge="1" parent="GmnKZ83CwBcU47um8lYi-6">
          <mxGeometry width="50" height="50" relative="1" as="geometry">
            <mxPoint x="-10" y="39.997618397869985" as="sourcePoint" />
            <mxPoint x="10" y="20" as="targetPoint" />
          </mxGeometry>
        </mxCell>
        <mxCell id="GmnKZ83CwBcU47um8lYi-22" value="&lt;font color=&quot;#b85450&quot;&gt;6&lt;/font&gt;" style="edgeLabel;html=1;align=center;verticalAlign=middle;resizable=0;points=[];rotation=0;container=0;" vertex="1" connectable="0" parent="GmnKZ83CwBcU47um8lYi-21">
          <mxGeometry x="0.7046" relative="1" as="geometry">
            <mxPoint x="-5" y="17" as="offset" />
          </mxGeometry>
        </mxCell>
        <mxCell id="GmnKZ83CwBcU47um8lYi-27" value="" style="triangle;whiteSpace=wrap;html=1;direction=east;fillColor=#f8cecc;strokeColor=#b85450;" vertex="1" parent="GmnKZ83CwBcU47um8lYi-6">
          <mxGeometry x="10" y="25" width="10" height="10" as="geometry" />
        </mxCell>
        <mxCell id="GmnKZ83CwBcU47um8lYi-8" value="" style="endArrow=none;html=1;rounded=0;strokeColor=#B5B5B5;strokeWidth=5;" edge="1" parent="1">
          <mxGeometry width="50" height="50" relative="1" as="geometry">
            <mxPoint x="-220" y="-330" as="sourcePoint" />
            <mxPoint x="-220" y="-230" as="targetPoint" />
          </mxGeometry>
        </mxCell>
        <mxCell id="GmnKZ83CwBcU47um8lYi-9" value="&lt;font color=&quot;#b5b5b5&quot; style=&quot;font-size: 24px;&quot;&gt;clk&lt;/font&gt;" style="edgeLabel;html=1;align=center;verticalAlign=middle;resizable=0;points=[];" vertex="1" connectable="0" parent="GmnKZ83CwBcU47um8lYi-8">
          <mxGeometry x="-0.7133" y="2" relative="1" as="geometry">
            <mxPoint x="-2" y="-34" as="offset" />
          </mxGeometry>
        </mxCell>
        <mxCell id="GmnKZ83CwBcU47um8lYi-10" value="" style="endArrow=none;html=1;rounded=0;strokeColor=#B5B5B5;strokeWidth=5;" edge="1" parent="1">
          <mxGeometry width="50" height="50" relative="1" as="geometry">
            <mxPoint x="-150" y="-330" as="sourcePoint" />
            <mxPoint x="-150" y="-230" as="targetPoint" />
          </mxGeometry>
        </mxCell>
        <mxCell id="GmnKZ83CwBcU47um8lYi-11" value="&lt;font color=&quot;#b5b5b5&quot; style=&quot;font-size: 24px;&quot;&gt;nReset&lt;/font&gt;" style="edgeLabel;html=1;align=center;verticalAlign=middle;resizable=0;points=[];" vertex="1" connectable="0" parent="GmnKZ83CwBcU47um8lYi-10">
          <mxGeometry x="-0.7133" y="2" relative="1" as="geometry">
            <mxPoint x="-2" y="-34" as="offset" />
          </mxGeometry>
        </mxCell>
        <mxCell id="GmnKZ83CwBcU47um8lYi-12" value="" style="endArrow=none;html=1;rounded=0;movable=1;resizable=1;rotatable=1;deletable=1;editable=1;locked=0;connectable=1;" edge="1" parent="1">
          <mxGeometry width="50" height="50" relative="1" as="geometry">
            <mxPoint x="519.9999999999999" y="-290.001905281704" as="sourcePoint" />
            <mxPoint x="539.9999999999999" y="-310.001905281704" as="targetPoint" />
          </mxGeometry>
        </mxCell>
        <mxCell id="GmnKZ83CwBcU47um8lYi-13" value="8" style="edgeLabel;html=1;align=center;verticalAlign=middle;resizable=0;points=[];rotation=0;container=0;" vertex="1" connectable="0" parent="GmnKZ83CwBcU47um8lYi-12">
          <mxGeometry x="0.7046" relative="1" as="geometry">
            <mxPoint x="-17" y="4" as="offset" />
          </mxGeometry>
        </mxCell>
        <mxCell id="GmnKZ83CwBcU47um8lYi-16" value="" style="endArrow=none;html=1;rounded=0;movable=1;resizable=1;rotatable=1;deletable=1;editable=1;locked=0;connectable=1;fillColor=#f8cecc;strokeColor=#B85450;" edge="1" parent="1">
          <mxGeometry width="50" height="50" relative="1" as="geometry">
            <mxPoint x="30" y="-400.00238160213" as="sourcePoint" />
            <mxPoint x="50" y="-420" as="targetPoint" />
          </mxGeometry>
        </mxCell>
        <mxCell id="GmnKZ83CwBcU47um8lYi-17" value="&lt;font color=&quot;#b85450&quot;&gt;8&lt;/font&gt;" style="edgeLabel;html=1;align=center;verticalAlign=middle;resizable=0;points=[];rotation=0;container=0;" vertex="1" connectable="0" parent="GmnKZ83CwBcU47um8lYi-16">
          <mxGeometry x="0.7046" relative="1" as="geometry">
            <mxPoint x="-17" y="4" as="offset" />
          </mxGeometry>
        </mxCell>
        <mxCell id="J4QfFlxhsdPLTSc603nR-7" value="" style="triangle;whiteSpace=wrap;html=1;direction=east;strokeColor=#000000;" parent="1" vertex="1">
          <mxGeometry x="780" y="11.919999999999995" width="10" height="15.125" as="geometry" />
        </mxCell>
        <mxCell id="J4QfFlxhsdPLTSc603nR-20" value="" style="endArrow=none;html=1;rounded=0;movable=1;resizable=1;rotatable=1;deletable=1;editable=1;locked=0;connectable=1;strokeColor=#000000;" parent="1" edge="1">
          <mxGeometry width="50" height="50" relative="1" as="geometry">
            <mxPoint x="749.9999999999999" y="30.928094718295988" as="sourcePoint" />
            <mxPoint x="769.9999999999999" y="10.928094718295988" as="targetPoint" />
          </mxGeometry>
        </mxCell>
        <mxCell id="J4QfFlxhsdPLTSc603nR-21" value="8" style="edgeLabel;html=1;align=center;verticalAlign=middle;resizable=0;points=[];rotation=0;container=0;" parent="J4QfFlxhsdPLTSc603nR-20" vertex="1" connectable="0">
          <mxGeometry x="0.7046" relative="1" as="geometry">
            <mxPoint x="-10" y="-4" as="offset" />
          </mxGeometry>
        </mxCell>
        <mxCell id="GmnKZ83CwBcU47um8lYi-30" value="" style="edgeStyle=orthogonalEdgeStyle;rounded=0;orthogonalLoop=1;jettySize=auto;html=1;" edge="1" parent="1" source="GmnKZ83CwBcU47um8lYi-28" target="GmnKZ83CwBcU47um8lYi-29">
          <mxGeometry relative="1" as="geometry" />
        </mxCell>
        <mxCell id="GmnKZ83CwBcU47um8lYi-29" value="Addr" style="text;html=1;align=center;verticalAlign=middle;resizable=0;points=[];autosize=1;strokeColor=none;fillColor=none;" vertex="1" parent="1">
          <mxGeometry x="650" y="4.479999999999997" width="50" height="30" as="geometry" />
        </mxCell>
        <mxCell id="GmnKZ83CwBcU47um8lYi-32" value="" style="group" vertex="1" connectable="0" parent="1">
          <mxGeometry x="770" y="-19.075" width="100" height="130.075" as="geometry" />
        </mxCell>
        <mxCell id="J4QfFlxhsdPLTSc603nR-14" value="" style="endArrow=none;html=1;rounded=0;entryX=-0.014;entryY=0.62;entryDx=0;entryDy=0;entryPerimeter=0;" parent="GmnKZ83CwBcU47um8lYi-32" target="J4QfFlxhsdPLTSc603nR-3" edge="1">
          <mxGeometry width="50" height="50" relative="1" as="geometry">
            <mxPoint y="84.075" as="sourcePoint" />
            <mxPoint x="20" y="124.075" as="targetPoint" />
          </mxGeometry>
        </mxCell>
        <mxCell id="J4QfFlxhsdPLTSc603nR-15" value="nReset" style="edgeLabel;html=1;align=center;verticalAlign=middle;resizable=0;points=[];" parent="J4QfFlxhsdPLTSc603nR-14" vertex="1" connectable="0">
          <mxGeometry x="-0.2105" y="1" relative="1" as="geometry">
            <mxPoint x="-30" as="offset" />
          </mxGeometry>
        </mxCell>
        <mxCell id="J4QfFlxhsdPLTSc603nR-3" value="&lt;font style=&quot;font-size: 18px;&quot;&gt;DM&lt;/font&gt;" style="rounded=0;whiteSpace=wrap;html=1;rotation=0;container=0;" parent="GmnKZ83CwBcU47um8lYi-32" vertex="1">
          <mxGeometry x="20" y="9.075" width="80" height="121" as="geometry" />
        </mxCell>
        <mxCell id="J4QfFlxhsdPLTSc603nR-4" value="" style="triangle;whiteSpace=wrap;html=1;container=0;" parent="GmnKZ83CwBcU47um8lYi-32" vertex="1">
          <mxGeometry x="20" y="89.075" width="10" height="25.88" as="geometry" />
        </mxCell>
        <mxCell id="J4QfFlxhsdPLTSc603nR-5" value="" style="endArrow=none;html=1;rounded=0;entryX=0;entryY=0.5;entryDx=0;entryDy=0;" parent="GmnKZ83CwBcU47um8lYi-32" target="J4QfFlxhsdPLTSc603nR-4" edge="1">
          <mxGeometry width="50" height="50" relative="1" as="geometry">
            <mxPoint y="102.075" as="sourcePoint" />
            <mxPoint y="99.825" as="targetPoint" />
          </mxGeometry>
        </mxCell>
        <mxCell id="J4QfFlxhsdPLTSc603nR-6" value="&lt;font style=&quot;font-size: 11px;&quot;&gt;clk&lt;/font&gt;" style="edgeLabel;html=1;align=center;verticalAlign=middle;resizable=0;points=[];container=0;" parent="J4QfFlxhsdPLTSc603nR-5" vertex="1" connectable="0">
          <mxGeometry x="-0.1933" y="1" relative="1" as="geometry">
            <mxPoint x="-15" as="offset" />
          </mxGeometry>
        </mxCell>
        <mxCell id="J4QfFlxhsdPLTSc603nR-8" value="WE" style="text;html=1;align=left;verticalAlign=middle;resizable=0;points=[];autosize=1;strokeColor=none;fillColor=none;" parent="GmnKZ83CwBcU47um8lYi-32" vertex="1">
          <mxGeometry x="20" width="40" height="30" as="geometry" />
        </mxCell>
        <mxCell id="GmnKZ83CwBcU47um8lYi-28" value="Addr" style="text;html=1;align=center;verticalAlign=middle;resizable=0;points=[];autosize=1;strokeColor=none;fillColor=none;" vertex="1" parent="GmnKZ83CwBcU47um8lYi-32">
          <mxGeometry x="10" y="23.554999999999996" width="50" height="30" as="geometry" />
        </mxCell>
        <mxCell id="GmnKZ83CwBcU47um8lYi-2" value="&lt;span style=&quot;font-size: 16px;&quot;&gt;SECTION 2&lt;/span&gt;" style="swimlane;whiteSpace=wrap;html=1;fillColor=#f5f5f5;fontColor=#333333;strokeColor=#666666;dashed=1;" vertex="1" parent="1">
          <mxGeometry x="425" y="-230" width="635" height="820" as="geometry" />
        </mxCell>
      </root>
    </mxGraphModel>
  </diagram>
</mxfile>
